<svg xmlns="http://www.w3.org/2000/svg">
    <symbol id="stroke" viewBox="0 0 252 151.5"><path fill="none" stroke="#010101" stroke-linecap="round" stroke-linejoin="round" stroke-miterlimit="10" stroke-width="2" d="M1 101.7s84.9 57.9 127.5 47.6c42.6-10.3 59.2-77.8 46.8-115.9C162.8-4.7 148.6-7 107.4 15.2c-45.8 26.9-71.6 67.5 5.4 66.2C128.1 81 201 78.1 251 64.8"/></symbol>
    
    <symbol id="stroke-hero" viewBox="0 0 252 251.9"><path fill="#020202" d="M135.5 251.9c-40.3 0-70.8-28.7-92.1-53.5C11.7 161.6-5.8 104.1 1.7 61.6 5.7 39 18.4 19.8 36.4 9.2c17.3-10.2 38.2-12 58.8-5 21.7 7.4 42.8 21.3 57.8 38.2 15.7 17.6 22.8 35.8 20.1 51.2-5.6 32.3-68.7 25.3-71.4 25-.5-.1-.9-.6-.9-1.1s.6-.9 1.1-.9c.6.1 63.9 7.1 69.2-23.3 5.2-30.2-31.3-71.8-76.6-87.2-20-6.8-40.3-5.1-57.1 4.8C19.9 21.3 7.6 39.9 3.7 62c-7.4 41.9 9.9 98.8 41.2 135.2 28.3 32.9 73 72.9 135.4 41.2 61.3-31.2 69.8-37.6 70.1-37.9.4-.3 1.1-.3 1.4.2.3.4.3 1.1-.2 1.4-.3.3-8.6 6.6-70.4 38.1-16.5 8.2-31.7 11.7-45.7 11.7z"/></symbol>

    <symbol id="signature" width="53" height="40" viewBox="0 0 53 40"><path d="M4.8 22.5l-.6.6c-.2.2-.3.4-.5.6-.3.3-.6.6-.8.9-.3.3-.5.6-.8.8-.1.1-.2.2-.4.3-.3.2-.6.2-.9.1s-.5-.3-.7-.6c-.1-.2-.1-.5-.1-.8.2-1.4.7-2.8 1.6-4.1.3-.4.6-.7 1.1-.9.6-.2 1.1-.2 1.5.2.2.1.3.3.4.4.1.2.1.4 0 .6-.1.2-.3.3-.5.3h-.3c-.3 0-.6.1-.9.4l-.2.4c-.5.8-1 1.7-1.3 2.6-.1.1-.1.3-.2.5.1.1.1.1.2 0l.1-.1c.2-.2.4-.4.7-.6s.4-.4.7-.7c.4-.4.7-.9 1.1-1.3.4-.4.7-.9 1.1-1.3.2-.2.3-.4.4-.6.1-.2.2-.4.3-.7.4-1.3.7-2.7 1.1-4l1.2-3.9c.4-1.3.9-2.4 1.3-3.5l1.5-3.3c.1-.2.2-.4.3-.7.1-.2.2-.4.3-.7.1-.1.1-.3.2-.4.1-.1.1-.2.2-.3.1-.2.3-.2.5-.2s.3.1.4.3c.1.1.1.3.2.6v.8c0 .3-.1.5-.1.8-.1.9-.3 1.7-.6 2.6-.3.8-.5 1.7-.8 2.5-.4 1.2-.9 2.4-1.4 3.5-.5 1.2-1 2.3-1.6 3.5-.2.3-.4.7-.6 1-.2.3-.4.7-.6 1-.1.1-.2.3-.2.4-.1.1-.1.2-.2.4-.4 1.4-.8 2.9-1.2 4.3-.4 1.4-.8 2.9-1.1 4.4-.2.8-.4 1.6-.5 2.4-.1.8-.3 1.6-.5 2.4-.1.4-.1.7-.1 1.1v.2c0 .1.1.2.1.2.1.2 0 .3-.2.5-.2.1-.4.2-.5.1-.2-.1-.3-.2-.4-.4-.1-.3-.1-.6-.1-.9 0-.2.1-.4.1-.5 0-.2.1-.3.1-.5.1-.6.2-1.1.3-1.7.1-.5.3-1.1.4-1.6.2-1.2.5-2.4.7-3.6.2-1.2.5-2.4.8-3.6v-.2zm2.8-5.3c.1-.3.2-.5.3-.6l.3-.6.2-.5c.4-1 .9-1.9 1.3-2.9l1.2-3c.3-.8.5-1.6.8-2.4.2-.8.4-1.6.5-2.5v-.6c-.1.1-.1.2-.1.2l-.1.1c-.1.1-.1.3-.2.4s-.1.3-.2.4c-.5 1.3-1 2.5-1.5 3.8-.3 1.4-.7 2.7-1.1 4-.1.2-.2.6-.3 1-.1.4-.3.8-.5 1.2-.2.4-.3.8-.4 1.2-.1.4-.2.6-.2.8zm1.9 7.2l.5-.5.6-.6c.2-.2.4-.4.6-.5.2-.2.4-.3.5-.4.2-.2.3-.3.4-.3.1-.1.3-.1.4-.1s.2.2.3.3c.1.1.1.2.1.2s0 .1.1.2c.1.2.2.5.2.7.1.2.2.5.3.7.1.1.1.3.2.4.1.1.2.2.3.4.1.1.3.2.4.3.2 0 .3 0 .5-.1s.4-.2.6-.4c.3-.3.6-.6.8-.9.3-.3.5-.7.8-1 .3-.4.5-.8.7-1.1.2-.3.4-.7.7-1.1.1-.2.2-.4.3-.4.2-.2.3-.2.6-.1.1.1.2.3.1.5l-.1.2c-.4.7-.9 1.4-1.3 2-.4.6-.9 1.2-1.4 1.9-.2.2-.3.4-.5.5l-.5.5c-.3.3-.7.5-1.1.5-.5 0-.9-.1-1.3-.5s-.7-.9-.8-1.4c-.1-.2-.1-.4-.2-.5-.1-.2-.1-.4-.2-.6-.1.1-.2.2-.4.3l-1.5 1.4c-.2.1-.4.2-.5.3-.1.1-.2.2-.4.3-.3.2-.5.2-.7.1s-.3-.4-.3-.6v-.4c.1-.1.1-.3.1-.4 0-.1.1-.3.1-.4.4-1.1.9-2.2 1.5-3.2.1-.2.3-.4.4-.5.1-.2.3-.3.5-.4.5-.3.9-.4 1.4-.2.2.1.4.2.6.4.2.2.3.4.2.6-.1.2-.2.3-.4.3H12c-.3 0-.5 0-.6.2l-.2.2c-.1.1-.1.2-.2.3-.2.3-.4.7-.6 1.1-.2.4-.4.8-.6 1.1 0 .1-.1.2-.2.4-.1.1-.1.3-.1.3z"/><path d="M22.6 18.4c-.3.2-.5.4-.7.6-.2.2-.3.4-.5.7-.2.4-.5.8-.7 1.2-.2.4-.5.8-.7 1.2l-2.4 4.3-.2.4c-.1.1-.3.2-.5.2-.1 0-.2-.1-.3-.1-.1-.1-.1-.1-.1-.2v-.8c.1-.4.2-.7.2-1.1.1-.3.2-.7.3-1.1l2-6.9.3-.9c.1-.3.3-.4.6-.4.1 0 .3.1.4.1.1.1.2.2.2.3 0 .1 0 .3-.1.5-.1.3-.2.6-.2.9l-.3.9L19 22c-.1.2-.1.3 0 .4l.4-.6c.2-.4.5-.9.7-1.3.2-.4.4-.8.7-1.3.3-.6.7-1.1 1.2-1.5l.2-.2c.1-.1.2-.1.3-.2.5-.3.9-.2 1.2.4.1.3.2.6.2.9.1.4.1.7.1 1.1v1.1c0 .3 0 .6.1.9 0 .3 0 .6.1.9 0 .2.1.5.2.8.1.2.2.3.4.2.1-.1.2-.1.4-.1.1 0 .2-.1.3-.2.4-.3.8-.6 1.1-.9.4-.4.8-.7 1.2-1.1.4-.4.8-.8 1.2-1.1.1-.1.2-.2.4-.3.2-.1.3-.1.4 0 .1.1.1.2.1.4s-.1.3-.2.4l-.8.8-.6.6-.5.5-.5.5-.6.6c-.2.2-.4.3-.6.5-.1.1-.3.2-.4.3-.2.1-.3.1-.5.2-.6.2-1.1 0-1.4-.5-.2-.4-.3-.8-.4-1.3-.1-.3-.1-.6-.1-.8 0-.3 0-.5-.1-.8v-2.4c0-.1 0-.2-.1-.3l-.5-.2z"/><path d="M37.4 19.8c.3-.3.5-.3.6-.1.2.2.2.4 0 .6-.1.2-.2.3-.3.3-.9.9-1.9 1.8-2.8 2.7-.9.9-1.9 1.8-2.8 2.6-.4.3-.7.7-1.1 1-.4.3-.7.6-1.1.9-.2.2-.5.3-.9.5-.6.2-1 0-1.1-.6-.1-.2-.1-.5-.1-.7v-1.6c.1-1.2.3-2.3.5-3.4s.5-2.2.9-3.3l.4-.9c.1-.2.2-.3.3-.4.2-.2.4-.2.6-.1.1 0 .1.1.1.2v.4c0 .1 0 .3-.1.4 0 .1-.1.2-.1.3-.4 1.3-.8 2.7-1 4.1l-.6 4.2c0 .2.1.3.4.2.3-.1.4-.2.6-.3.3-.2.6-.4.8-.6.3-.2.5-.4.8-.6.5-.5 1-.9 1.6-1.4.5-.5 1-.9 1.6-1.4.5-.4 1-.9 1.5-1.4.3-.7.8-1.1 1.3-1.6zm-6.7-4.1c-.3 0-.5-.2-.4-.5 0-.1 0-.2.1-.3l.4-.4c.1-.1.2-.2.4-.3.2-.1.4-.1.5 0 .2.1.3.3.3.5 0 .1 0 .1-.1.2 0 .1 0 .1-.1.2-.2.3-.5.5-.9.6h-.2z"/><path d="M36.4 23.9c0-.5.1-1.1.3-1.7.1-.6.3-1.3.6-2 .2-.7.5-1.4.8-2.1.3-.7.7-1.3 1-1.9l.6-.9.6-.9.3-.3.3-.3c.1-.1.3-.2.4-.3.5-.2.8-.1 1 .5.1.3.1.6 0 .8-.1.1-.1.3-.1.4 0 .1-.1.3-.1.4-.6 1.4-1.4 2.7-2.5 3.8l-.4.4c-.2.1-.3.2-.5.4-.2.1-.3.3-.3.4-.2.5-.3 1.1-.4 1.6-.1.5-.2 1.1-.3 1.6V25c.2.5.5.6.9.5.3-.1.6-.2.8-.4.2-.2.5-.3.7-.5.2-.2.5-.3.7-.5.4-.3.9-.7 1.3-1.1l1.2-1.2.9-.9.9-.9.4-.4c.2-.1.3-.1.5.1.2.1.2.3.1.5s-.2.3-.3.4c-.3.4-.7.7-1 1l-1 1c-.6.6-1.2 1.2-1.8 1.7-.6.6-1.3 1.1-1.9 1.5-.2.1-.3.2-.5.3-.2.1-.3.2-.5.3-.6.3-1.1.3-1.6 0-.4-.3-.7-.7-.9-1.2l-.1-.6v-.4c0-.1-.1-.2-.1-.3zm5.3-9.7c-.3.3-.6.7-.9 1.2-.3.5-.7 1.3-1.2 2.3-.1.1-.1.3-.2.4-.1.1-.1.3-.1.5.5-.6 1-1.2 1.4-1.8.4-.6.7-1.3 1-1.9.1-.2.2-.4 0-.7z"/><path d="M41.8 38c0-.7.1-1.3.2-1.9l.3-1.8.6-3 .6-3c.5-2.6 1.1-5.1 1.7-7.5s1.3-5 2-7.5c.3-1.2.7-2.4 1.1-3.6.4-1.2.8-2.4 1.2-3.5.6-1.8 1.3-3.6 2.1-5.3.1-.1.1-.3.2-.4.1-.1.1-.2.2-.3.1-.2.3-.2.5-.2s.3.2.4.4c0 .3.1.5.1.7v1.2c-.1.4-.1.8-.2 1.1-.2 1.1-.4 2.2-.7 3.2-.3 1-.7 2.1-1 3.1-.4.9-.8 1.9-1.2 2.8-.4.9-.8 1.8-1.3 2.8L47 18.6c-.2.4-.4.8-.5 1.2-.2.9-.4 1.9-.7 2.8-.2.9-.5 1.9-.7 2.8-.2.8-.4 1.7-.6 2.5-.2.8-.3 1.6-.6 2.5s-.4 1.7-.6 2.5c-.2.8-.3 1.6-.5 2.5-.1.4-.1.8-.1 1.2 0 .4-.1.8-.1 1.2-.1.5 0 1 .2 1.4v.1c.1.2 0 .4-.2.5-.2.1-.4.1-.5 0-.3-.2-.4-.4-.5-.7v-.8l.2-.3zM52.1 1.4c-.1.2-.1.3-.2.4-.7 1.8-1.3 3.5-1.8 5.3-.4 1.3-.7 2.5-1.1 3.8-.4 1.3-.7 2.5-1.1 3.8l-.1.6c.2-.2.3-.3.4-.6.2-.5.4-1 .7-1.5.2-.5.5-1 .7-1.5.4-1.1.9-2.2 1.2-3.2.4-1.1.7-2.2 1-3.3.1-.6.2-1.2.3-1.9.1-.6.1-1.3.1-2l-.1.1z"/></symbol>
</svg>